<svg width="240" height="48" viewBox="0 0 240 48" fill="none" xmlns="http://www.w3.org/2000/svg" role="img" aria-label="Maxwell Software Solutions">
  <title>Maxwell Software Solutions</title>

  <!-- Hexagon icon mark -->
  <polygon points="24,3 42,13 42,35 24,45 6,35 6,13" fill="#1e3a6e" stroke="#3b82f6" stroke-width="1.8"/>

  <!-- Node network -->
  <circle cx="24" cy="24" r="3" fill="#60a5fa"/>
  <circle cx="14" cy="17" r="1.8" fill="#93c5fd" fill-opacity="0.85"/>
  <circle cx="34" cy="17" r="1.8" fill="#93c5fd" fill-opacity="0.85"/>
  <circle cx="14" cy="31" r="1.8" fill="#93c5fd" fill-opacity="0.85"/>
  <circle cx="34" cy="31" r="1.8" fill="#93c5fd" fill-opacity="0.85"/>
  <line x1="14" y1="17" x2="24" y2="24" stroke="#60a5fa" stroke-width="1" stroke-opacity="0.9"/>
  <line x1="34" y1="17" x2="24" y2="24" stroke="#60a5fa" stroke-width="1" stroke-opacity="0.9"/>
  <line x1="14" y1="31" x2="24" y2="24" stroke="#60a5fa" stroke-width="1" stroke-opacity="0.9"/>
  <line x1="34" y1="31" x2="24" y2="24" stroke="#60a5fa" stroke-width="1" stroke-opacity="0.9"/>
  <line x1="14" y1="17" x2="14" y2="31" stroke="#60a5fa" stroke-width="0.7" stroke-opacity="0.55"/>
  <line x1="34" y1="17" x2="34" y2="31" stroke="#60a5fa" stroke-width="0.7" stroke-opacity="0.55"/>

  <!-- MSS initials -->
  <text x="24" y="21" font-family="'Arial', sans-serif" font-size="6" font-weight="700" fill="#bfdbfe" text-anchor="middle" letter-spacing="1">MSS</text>

  <!-- Separator -->
  <line x1="52" y1="11" x2="52" y2="37" stroke="#3b82f6" stroke-width="0.8" stroke-opacity="0.5"/>

  <!-- Wordmark -->
  <text x="61" y="21" font-family="'Arial', 'Helvetica Neue', sans-serif" font-size="14" font-weight="700" fill="#f0f4ff" letter-spacing="0.2">Maxwell</text>
  <text x="61" y="34" font-family="'Arial', 'Helvetica Neue', sans-serif" font-size="9.5" font-weight="400" fill="#93c5fd" letter-spacing="0.7">Software Solutions</text>
</svg>
