<svg width="600" height="450" viewBox="0 0 600 450" xmlns="http://www.w3.org/2000/svg">
  <defs>
    <linearGradient id="bg" x1="0%" y1="0%" x2="100%" y2="100%">
      <stop offset="0%" stop-color="#06080f"/>
      <stop offset="100%" stop-color="#0c1325"/>
    </linearGradient>
    <radialGradient id="g1" cx="30%" cy="40%" r="55%">
      <stop offset="0%" stop-color="#7c3aed" stop-opacity="0.35"/>
      <stop offset="100%" stop-color="#7c3aed" stop-opacity="0"/>
    </radialGradient>
    <radialGradient id="g2" cx="75%" cy="65%" r="45%">
      <stop offset="0%" stop-color="#2563eb" stop-opacity="0.25"/>
      <stop offset="100%" stop-color="#2563eb" stop-opacity="0"/>
    </radialGradient>
    <linearGradient id="accent" x1="0%" y1="0%" x2="100%" y2="0%">
      <stop offset="0%" stop-color="#7c3aed"/>
      <stop offset="100%" stop-color="#2563eb"/>
    </linearGradient>
  </defs>
  <rect width="600" height="450" fill="url(#bg)"/>
  <rect width="600" height="450" fill="url(#g1)"/>
  <rect width="600" height="450" fill="url(#g2)"/>
  <rect width="600" height="3" fill="url(#accent)"/>

  <!-- Grid -->
  <g opacity="0.04" stroke="#818cf8" stroke-width="1">
    <line x1="0" y1="90" x2="600" y2="90"/>
    <line x1="0" y1="180" x2="600" y2="180"/>
    <line x1="0" y1="270" x2="600" y2="270"/>
    <line x1="0" y1="360" x2="600" y2="360"/>
    <line x1="100" y1="0" x2="100" y2="450"/>
    <line x1="200" y1="0" x2="200" y2="450"/>
    <line x1="300" y1="0" x2="300" y2="450"/>
    <line x1="400" y1="0" x2="400" y2="450"/>
    <line x1="500" y1="0" x2="500" y2="450"/>
  </g>

  <!-- Hexagonal service grid — drawn as hexagons -->
  <!-- Helper: flat-top hexagon centered at cx,cy with radius r -->
  <!-- Row 1 -->
  <polygon points="185,115 215,98 245,115 245,149 215,166 185,149" fill="#818cf8" fill-opacity="0.1" stroke="#818cf8" stroke-opacity="0.35" stroke-width="1.5"/>
  <circle cx="215" cy="132" r="6" fill="#818cf8" fill-opacity="0.7"/>

  <polygon points="245,115 275,98 305,115 305,149 275,166 245,149" fill="#34d399" fill-opacity="0.08" stroke="#34d399" stroke-opacity="0.3" stroke-width="1.5"/>
  <circle cx="275" cy="132" r="6" fill="#34d399" fill-opacity="0.7"/>

  <polygon points="305,115 335,98 365,115 365,149 335,166 305,149" fill="#fbbf24" fill-opacity="0.08" stroke="#fbbf24" stroke-opacity="0.3" stroke-width="1.5"/>
  <circle cx="335" cy="132" r="6" fill="#fbbf24" fill-opacity="0.7"/>

  <polygon points="365,115 395,98 425,115 425,149 395,166 365,149" fill="#f87171" fill-opacity="0.08" stroke="#f87171" stroke-opacity="0.25" stroke-width="1.5"/>
  <circle cx="395" cy="132" r="6" fill="#f87171" fill-opacity="0.6"/>

  <!-- Row 2 (offset) -->
  <polygon points="155,149 185,132 215,149 215,183 185,200 155,183" fill="#a78bfa" fill-opacity="0.08" stroke="#a78bfa" stroke-opacity="0.3" stroke-width="1.5"/>
  <circle cx="185" cy="166" r="6" fill="#a78bfa" fill-opacity="0.7"/>

  <polygon points="215,149 245,132 275,149 275,183 245,200 215,183" fill="#06b6d4" fill-opacity="0.1" stroke="#06b6d4" stroke-opacity="0.35" stroke-width="2"/>
  <circle cx="245" cy="166" r="8" fill="#06b6d4" fill-opacity="0.5"/>
  <circle cx="245" cy="166" r="4" fill="#67e8f9"/>

  <polygon points="275,149 305,132 335,149 335,183 305,200 275,183" fill="#818cf8" fill-opacity="0.1" stroke="#818cf8" stroke-opacity="0.35" stroke-width="1.5"/>
  <circle cx="305" cy="166" r="6" fill="#818cf8" fill-opacity="0.7"/>

  <polygon points="335,149 365,132 395,149 395,183 365,200 335,183" fill="#34d399" fill-opacity="0.08" stroke="#34d399" stroke-opacity="0.3" stroke-width="1.5"/>
  <circle cx="365" cy="166" r="6" fill="#34d399" fill-opacity="0.6"/>

  <polygon points="395,149 425,132 455,149 455,183 425,200 395,183" fill="#fbbf24" fill-opacity="0.08" stroke="#fbbf24" stroke-opacity="0.25" stroke-width="1.5"/>
  <circle cx="425" cy="166" r="6" fill="#fbbf24" fill-opacity="0.6"/>

  <!-- Row 3 -->
  <polygon points="185,183 215,166 245,183 245,217 215,234 185,217" fill="#f87171" fill-opacity="0.07" stroke="#f87171" stroke-opacity="0.25" stroke-width="1.5"/>
  <circle cx="215" cy="200" r="5" fill="#f87171" fill-opacity="0.5"/>

  <polygon points="245,183 275,166 305,183 305,217 275,234 245,217" fill="#a78bfa" fill-opacity="0.08" stroke="#a78bfa" stroke-opacity="0.3" stroke-width="1.5"/>
  <circle cx="275" cy="200" r="5" fill="#a78bfa" fill-opacity="0.6"/>

  <polygon points="305,183 335,166 365,183 365,217 335,234 305,217" fill="#818cf8" fill-opacity="0.12" stroke="#818cf8" stroke-opacity="0.4" stroke-width="1.5"/>
  <circle cx="335" cy="200" r="6" fill="#818cf8" fill-opacity="0.7"/>

  <polygon points="365,183 395,166 425,183 425,217 395,234 365,217" fill="#06b6d4" fill-opacity="0.07" stroke="#06b6d4" stroke-opacity="0.25" stroke-width="1.5"/>
  <circle cx="395" cy="200" r="5" fill="#06b6d4" fill-opacity="0.5"/>

  <!-- Row 4 (partial, fading out) -->
  <polygon points="215,217 245,200 275,217 275,251 245,268 215,251" fill="#34d399" fill-opacity="0.05" stroke="#34d399" stroke-opacity="0.18" stroke-width="1"/>
  <circle cx="245" cy="234" r="4" fill="#34d399" fill-opacity="0.4"/>
  <polygon points="275,217 305,200 335,217 335,251 305,268 275,251" fill="#fbbf24" fill-opacity="0.05" stroke="#fbbf24" stroke-opacity="0.15" stroke-width="1"/>
  <circle cx="305" cy="234" r="4" fill="#fbbf24" fill-opacity="0.35"/>
  <polygon points="335,217 365,200 395,217 395,251 365,268 335,251" fill="#818cf8" fill-opacity="0.04" stroke="#818cf8" stroke-opacity="0.12" stroke-width="1"/>
  <circle cx="365" cy="234" r="4" fill="#818cf8" fill-opacity="0.3"/>

  <!-- Gateway node (right side, prominent) -->
  <circle cx="500" cy="190" r="36" fill="#4f46e5" fill-opacity="0.18" stroke="#818cf8" stroke-opacity="0.4" stroke-width="1.5"/>
  <circle cx="500" cy="190" r="20" fill="#4f46e5" fill-opacity="0.25"/>
  <circle cx="500" cy="190" r="8" fill="#818cf8" fill-opacity="0.7"/>

  <!-- Gateway connections -->
  <line x1="464" y1="175" x2="425" y2="160" stroke="#818cf8" stroke-width="1.2" stroke-opacity="0.3" stroke-dasharray="4,3"/>
  <line x1="464" y1="190" x2="455" y2="190" stroke="#818cf8" stroke-width="1.2" stroke-opacity="0.3" stroke-dasharray="4,3"/>
  <line x1="464" y1="205" x2="425" y2="215" stroke="#818cf8" stroke-width="1.2" stroke-opacity="0.3" stroke-dasharray="4,3"/>
</svg>
